HIERARCHY
ROOT Hips
{
	OFFSET 0.000000 0.000000 0.000000
	CHANNELS 6 Xposition Yposition Zposition Xrotation Yrotation Zrotation
	JOINT LeftUpLeg_virtual
	{
		OFFSET 0.000000 0.000000 0.000000
		CHANNELS 3 Xrotation Yrotation Zrotation
		JOINT LeftUpLeg
		{
			OFFSET 10.205400 -3.823500 0.155100
			CHANNELS 3 Xrotation Yrotation Zrotation
			JOINT LeftLeg
			{
				OFFSET 0.708757 -12.982077 0.567790
				CHANNELS 3 Xrotation Yrotation Zrotation
				JOINT LeftFoot
				{
					OFFSET -0.708756 -10.717838 -2.184338
					CHANNELS 3 Xrotation Yrotation Zrotation
					JOINT LeftToeBase
					{
						OFFSET 0.108149 -7.191104 7.560241
						CHANNELS 3 Xrotation Yrotation Zrotation
						JOINT LeftToe_End
						{
							OFFSET 0.070230 0.081724 4.490308
							CHANNELS 3 Xrotation Yrotation Zrotation
							End Site
							{
								OFFSET 0 0 0
							}
						}
					}
				}
			}
		}
	}
	JOINT RightUpLeg_virtual
	{
		OFFSET 0.000000 0.000000 0.000000
		CHANNELS 3 Xrotation Yrotation Zrotation
		JOINT RightUpLeg
		{
			OFFSET -10.205400 -3.823500 0.005500
			CHANNELS 3 Xrotation Yrotation Zrotation
			JOINT RightLeg
			{
				OFFSET -0.708756 -12.982134 0.610632
				CHANNELS 3 Xrotation Yrotation Zrotation
				JOINT RightFoot
				{
					OFFSET 0.708754 -10.717769 -1.945823
					CHANNELS 3 Xrotation Yrotation Zrotation
					JOINT RightToeBase
					{
						OFFSET -0.108140 -7.191069 7.372968
						CHANNELS 3 Xrotation Yrotation Zrotation
						JOINT RightToe_End
						{
							OFFSET -0.070227 0.081735 4.479403
							CHANNELS 3 Xrotation Yrotation Zrotation
							End Site
							{
								OFFSET 0 0 0
							}
						}
					}
				}
			}
		}
	}
	JOINT Spine_virtual
	{
		OFFSET 0.000000 0.000000 0.000000
		CHANNELS 3 Xrotation Yrotation Zrotation
		JOINT Spine
		{
			OFFSET 0.000000 6.876099 0.125700
			CHANNELS 3 Xrotation Yrotation Zrotation
			JOINT Spine1
			{
				OFFSET 0.000000 5.730043 0.104720
				CHANNELS 3 Xrotation Yrotation Zrotation
				JOINT Spine1_split
				{
					OFFSET 0.000000 5.730043 0.104720
					CHANNELS 3 Xrotation Yrotation Zrotation
					JOINT Spine2
					{
						OFFSET 0.000000 5.730043 0.104720
						CHANNELS 3 Xrotation Yrotation Zrotation
						JOINT Neck_virtual
						{
							OFFSET 0.000000 0.000000 0.000000
							CHANNELS 3 Xrotation Yrotation Zrotation
							JOINT Neck
							{
								OFFSET 0.000000 10.314075 0.188496
								CHANNELS 3 Xrotation Yrotation Zrotation
								JOINT Head
								{
									OFFSET 0.000000 7.643700 -2.377400
									CHANNELS 3 Xrotation Yrotation Zrotation
									JOINT HeadTop_End
									{
										OFFSET 0.000000 43.788605 -13.619600
										CHANNELS 3 Xrotation Yrotation Zrotation
										End Site
										{
											OFFSET 0 0 0
										}
									}
								}
							}
						}
						JOINT LeftShoulder_virtual
						{
							OFFSET 0.000000 0.000000 0.000000
							CHANNELS 3 Xrotation Yrotation Zrotation
							JOINT LeftShoulder
							{
								OFFSET 2.196100 4.412489 0.087492
								CHANNELS 3 Xrotation Yrotation Zrotation
								JOINT LeftShoulder_split
								{
									OFFSET 2.196100 4.412489 0.087492
									CHANNELS 3 Xrotation Yrotation Zrotation
									JOINT LeftArm
									{
										OFFSET 8.771219 -2.981674 -0.026999
										CHANNELS 3 Xrotation Yrotation Zrotation
										JOINT LeftForeArm
										{
											OFFSET 8.512804 0.000000 -0.000000
											CHANNELS 3 Xrotation Yrotation Zrotation
											JOINT LeftHand
											{
												OFFSET 18.484802 0.000000 -0.000000
												CHANNELS 3 Xrotation Yrotation Zrotation
												End Site
												{
													OFFSET 0 0 0
												}
											}
										}
									}
								}
							}
						}
						JOINT RightShoulder_virtual
						{
							OFFSET 0.000000 0.000000 0.000000
							CHANNELS 3 Xrotation Yrotation Zrotation
							JOINT RightShoulder
							{
								OFFSET -2.196100 4.412496 0.070690
								CHANNELS 3 Xrotation Yrotation Zrotation
								JOINT RightShoulder_split
								{
									OFFSET -2.196100 4.412496 0.070690
									CHANNELS 3 Xrotation Yrotation Zrotation
									JOINT RightArm
									{
										OFFSET -8.771282 -2.981682 -0.094208
										CHANNELS 3 Xrotation Yrotation Zrotation
										JOINT RightForeArm
										{
											OFFSET -8.494598 0.000000 0.000000
											CHANNELS 3 Xrotation Yrotation Zrotation
											JOINT RightHand
											{
												OFFSET -18.483803 0.000000 0.000001
												CHANNELS 3 Xrotation Yrotation Zrotation
												End Site
												{
													OFFSET 0 0 0
												}
											}
										}
									}
								}
							}
						}
					}
				}
			}
		}
	}
}
MOTION
Frames: 9
Frame Time: 0.03333333
0.339618 28.235958 0.380224 0.000000 0.000000 0.000000 7.226542 -11.029801 3.819702 -51.772591 4.126541 21.460584 48.194146 2.887441 8.445682 -2.575007 2.230684 -26.722471 1.112595 0.648113 -0.687218 0.000000 0.000000 0.000000 6.941234 -11.953617 4.310045 -26.802953 2.595600 -40.153900 46.655438 2.900366 -0.115728 -24.431375 -10.142882 30.396456 1.220849 1.278072 0.521030 0.000000 0.000000 0.000000 8.787440 -10.112840 3.964718 8.003137 0.997145 -1.208216 8.089470 2.104136 -0.907201 1.145382 0.372530 0.386402 0.000000 0.000000 0.000000 8.237988 1.226994 -0.483116 -1.477315 0.102539 -0.396429 -17.723847 0.697359 2.258731 0.000000 0.000000 0.000000 7.334197 1.332771 -0.701191 2.511032 -12.955920 -9.340597 -4.697057 -4.366475 -1.839964 -22.718290 -3.699342 -43.442711 -179.421966 -56.926758 179.063108 0.000000 0.000000 0.000000 7.345832 1.371134 -0.489238 0.647067 8.579739 10.439456 1.042340 3.940476 -0.848047 5.620658 5.127564 41.259076 -179.820726 87.247006 178.501366 0.000000 0.000000 0.000000 
0.370993 28.249170 0.426943 0.000000 0.000000 0.000000 7.295278 -11.025025 3.791203 -51.782895 4.021617 21.483819 48.161187 2.947373 8.411784 -2.683856 2.244461 -26.760789 1.147771 0.643913 -0.691448 0.000000 0.000000 0.000000 6.974961 -11.959875 4.278939 -26.647872 2.578378 -40.120562 46.428317 2.832942 -0.112444 -24.440229 -10.183596 30.441781 1.163630 1.244284 0.501298 0.000000 0.000000 0.000000 8.882170 -10.103498 3.912117 7.969568 1.019860 -1.239294 8.128084 2.095577 -0.932467 1.198554 0.398540 0.356179 0.000000 0.000000 0.000000 8.233551 1.220289 -0.496169 -1.465506 0.086561 -0.384377 -17.659379 0.726349 2.238818 0.000000 0.000000 0.000000 7.398149 1.323787 -0.695483 2.483677 -12.957383 -9.379503 -4.638258 -4.224782 -1.887009 -22.599928 -3.702669 -43.686365 -179.532041 -57.061811 178.938730 0.000000 0.000000 0.000000 7.377752 1.357648 -0.504473 0.689070 8.707384 10.488247 1.037612 4.023213 -0.879208 5.796548 5.001445 41.098823 179.748272 87.217937 178.994847 0.000000 0.000000 0.000000 
0.424388 28.258734 0.464748 0.000000 0.000000 0.000000 7.376025 -11.089512 3.724761 -51.835392 3.857961 21.533700 48.242637 3.038325 8.387786 -2.852485 2.276742 -26.877209 1.181491 0.641226 -0.679888 0.000000 0.000000 0.000000 7.019473 -11.988132 4.206376 -26.502181 2.518801 -40.040837 46.103497 2.753404 -0.117512 -24.552763 -10.253367 30.435729 1.169182 1.216704 0.469036 0.000000 0.000000 0.000000 8.994851 -10.093809 3.826000 7.947862 1.075620 -1.313366 8.157565 2.117853 -0.946779 1.159167 0.325808 0.319449 0.000000 0.000000 0.000000 8.212565 1.237539 -0.503677 -1.412740 0.008134 -0.379506 -17.504329 0.614828 2.230672 0.000000 0.000000 0.000000 7.446104 1.334133 -0.704367 2.450658 -12.957575 -9.464394 -4.572354 -4.184961 -1.814695 -22.593258 -3.602729 -44.192506 -179.690857 -57.226170 178.774833 0.000000 0.000000 0.000000 7.402284 1.376998 -0.506754 0.735713 8.904134 10.596690 0.996150 4.117145 -0.899629 6.228389 4.780365 40.793117 179.949844 87.248208 178.863762 0.000000 0.000000 0.000000 
0.491419 28.258297 0.488527 0.000000 0.000000 0.000000 7.449364 -11.212702 3.636797 -51.915059 3.676054 21.590931 48.425054 3.147209 8.380332 -3.064368 2.317783 -27.050563 1.196099 0.641260 -0.647658 0.000000 0.000000 0.000000 7.073585 -12.054154 4.109806 -26.421342 2.441117 -39.942888 45.766277 2.692221 -0.114174 -24.660371 -10.323983 30.437888 1.166155 1.199398 0.439855 0.000000 0.000000 0.000000 9.102301 -10.076518 3.730774 7.936760 1.156770 -1.421716 8.172987 2.162001 -0.954247 1.058205 0.247329 0.306793 0.000000 0.000000 0.000000 8.179458 1.274445 -0.507898 -1.350262 -0.103412 -0.384549 -17.324136 0.392431 2.224255 0.000000 0.000000 0.000000 7.472704 1.355653 -0.729627 2.425170 -12.956947 -9.548967 -4.527288 -4.234124 -1.677608 -22.714732 -3.420475 -44.798593 -179.868319 -57.349922 178.611223 0.000000 0.000000 0.000000 7.412360 1.418658 -0.500760 0.781562 9.137249 10.702532 0.890615 4.171358 -0.846780 6.804570 4.471080 40.366254 -179.088393 87.218285 177.970360 0.000000 0.000000 0.000000 
0.557527 28.247213 0.496309 0.000000 0.000000 0.000000 7.511724 -11.358950 3.543307 -52.004569 3.504434 21.635230 48.680537 3.266943 8.395683 -3.296376 2.360006 -27.232000 1.187270 0.646190 -0.599677 0.000000 0.000000 0.000000 7.135746 -12.128742 4.010918 -26.405863 2.371172 -39.850366 45.477431 2.679901 -0.106611 -24.717490 -10.386397 30.509243 1.061530 1.188658 0.430313 0.000000 0.000000 0.000000 9.191079 -10.043972 3.636659 7.935242 1.249044 -1.557076 8.178172 2.210828 -0.963552 0.974492 0.189979 0.333882 0.000000 0.000000 0.000000 8.143533 1.315933 -0.516147 -1.313636 -0.223888 -0.409845 -17.198995 0.095064 2.211995 0.000000 0.000000 0.000000 7.485110 1.375337 -0.770414 2.413860 -12.974722 -9.599546 -4.510540 -4.316058 -1.564285 -22.930875 -3.171565 -45.334144 179.974296 -57.385057 178.497227 0.000000 0.000000 0.000000 7.412919 1.466686 -0.494836 0.822760 9.378323 10.767681 0.731190 4.124528 -0.728611 7.403800 4.095547 39.866964 -177.517791 87.032053 176.457910 0.000000 0.000000 0.000000 
0.610526 28.230053 0.485756 0.000000 0.000000 0.000000 7.565136 -11.497693 3.458789 -52.082754 3.357636 21.659696 48.959756 3.397793 8.436571 -3.509730 2.393109 -27.376373 1.172137 0.657527 -0.561472 0.000000 0.000000 0.000000 7.203024 -12.193254 3.918661 -26.438018 2.332883 -39.763760 45.277597 2.724107 -0.108040 -24.765095 -10.448833 30.622825 0.891839 1.181168 0.448453 0.000000 0.000000 0.000000 9.265086 -10.040031 3.558568 7.941543 1.337807 -1.700243 8.176483 2.245556 -0.982991 0.941752 0.146642 0.404207 0.000000 0.000000 0.000000 8.111444 1.354449 -0.535903 -1.313655 -0.335986 -0.456195 -17.145872 -0.231482 2.175518 0.000000 0.000000 0.000000 7.496099 1.387683 -0.824756 2.419200 -13.022589 -9.597750 -4.514074 -4.381683 -1.506624 -23.156512 -2.881978 -45.676996 179.855861 -57.291227 178.455426 0.000000 0.000000 0.000000 7.410815 1.509127 -0.496350 0.861610 9.590479 10.760078 0.523734 3.998354 -0.575483 7.935833 3.661085 39.379824 -176.025614 86.689499 175.018666 0.000000 0.000000 0.000000 
0.637492 28.213223 0.464050 0.000000 0.000000 0.000000 7.596909 -11.612490 3.386644 -52.127939 3.228002 21.684952 49.195117 3.539559 8.507900 -3.652199 2.401740 -27.478271 1.167922 0.674204 -0.546163 0.000000 0.000000 0.000000 7.259921 -12.264995 3.841462 -26.495455 2.334781 -39.683331 45.201929 2.806247 -0.110174 -24.880817 -10.517264 30.679673 0.833062 1.177181 0.503571 0.000000 0.000000 0.000000 9.312409 -10.067718 3.493978 7.953684 1.418248 -1.837613 8.179904 2.264815 -1.012546 1.000305 0.149911 0.456895 0.000000 0.000000 0.000000 8.089486 1.385056 -0.564277 -1.341595 -0.425532 -0.526012 -17.135924 -0.561305 2.096695 0.000000 0.000000 0.000000 7.514904 1.392990 -0.882974 2.436000 -13.138188 -9.535530 -4.549745 -4.390628 -1.513891 -23.259434 -2.584207 -45.799533 179.805003 -57.036611 178.519766 0.000000 0.000000 0.000000 7.403076 1.541353 -0.506150 0.900534 9.768389 10.673064 0.308517 3.856078 -0.386998 8.327177 3.193163 38.990114 -175.078895 86.254771 174.133187 0.000000 0.000000 0.000000 
0.637213 28.202480 0.424183 0.000000 0.000000 0.000000 7.599974 -11.702978 3.325498 -52.096547 3.108101 21.716243 49.315708 3.684584 8.605733 -3.690484 2.368035 -27.554773 1.159626 0.691364 -0.544273 0.000000 0.000000 0.000000 7.276064 -12.329011 3.776629 -26.580316 2.361469 -39.607929 45.260894 2.906463 -0.102402 -25.087951 -10.589212 30.629550 0.954331 1.178130 0.581478 0.000000 0.000000 0.000000 9.310319 -10.140866 3.440238 7.960617 1.486773 -1.949575 8.184237 2.272048 -1.042388 1.116889 0.163800 0.489202 0.000000 0.000000 0.000000 8.082010 1.408857 -0.593364 -1.355052 -0.496259 -0.619865 -17.108651 -0.896006 1.960154 0.000000 0.000000 0.000000 7.544888 1.402453 -0.930517 2.457252 -13.333910 -9.431999 -4.617212 -4.328692 -1.603093 -23.159297 -2.308183 -45.764600 179.844482 -56.633832 178.707119 0.000000 0.000000 0.000000 7.394891 1.567248 -0.520039 0.943415 9.906085 10.523133 0.097874 3.722554 -0.204809 8.544655 2.765250 38.792316 -174.769952 85.741728 173.902873 0.000000 0.000000 0.000000 
0.610316 28.197598 0.367516 0.000000 0.000000 0.000000 7.544307 -11.785350 3.282136 -51.943923 3.009153 21.752974 49.277568 3.834568 8.720359 -3.661063 2.294509 -27.604469 1.144161 0.699362 -0.544003 0.000000 0.000000 0.000000 7.211206 -12.404233 3.730842 -26.697200 2.402878 -39.536277 45.452238 3.040884 -0.083088 -25.329376 -10.644079 30.516855 1.138748 1.185935 0.649397 0.000000 0.000000 0.000000 9.226949 -10.258174 3.403481 7.947293 1.550646 -2.009399 8.181709 2.286935 -1.055012 1.233527 0.159324 0.497455 0.000000 0.000000 0.000000 8.077569 1.442906 -0.607470 -1.312367 -0.534854 -0.735390 -16.976415 -1.232828 1.743969 0.000000 0.000000 0.000000 7.574389 1.432664 -0.950918 2.475969 -13.598849 -9.300745 -4.676522 -4.205294 -1.695075 -22.879551 -2.065155 -45.668339 179.960936 -56.098686 178.993495 0.000000 0.000000 0.000000 7.388644 1.602143 -0.526602 1.002721 9.981176 10.309739 -0.094212 3.664322 -0.050913 8.585929 2.377649 38.766217 -174.934614 85.149455 174.156109 0.000000 0.000000 0.000000 
